<?xml version="1.0" encoding="UTF-8"?>
<svg version="1.1" viewBox="0 0 2048 908" width="1105" height="490" xmlns="http://www.w3.org/2000/svg">
<path transform="translate(407,6)" d="m0 0h9l1 78-1 1-7 1-34 2-33 4-36 7-30 8-29 10-23 10-16 8-18 10-15 10-12 9-11 9-13 12-12 13-13 17-12 20-9 19-7 22-4 17-2 15-1 22 2 26 5 22 8 20 9 16 8 10 9 10 10 9 15 10 15 8 24 8 16 3 9 1h30l20-3 17-5 19-9 13-9 6-5 8-10 8-14 6-16 5-25 2-23 1-75h77l1 1v303l-3 25-5 24-9 27-8 18-10 17-12 16-9 10-6 7-8 7-17 13-15 9-16 8-21 8-22 6-25 4-11 1h-46l-25-3-27-6-21-7-18-8-17-10-16-12-13-12-6-6 1-4 28-34 9-11 8-10 4 2 12 10 16 10 16 8 21 7 18 4 17 2h36l21-3 19-5 18-8 12-7 10-8 13-13 10-15 9-19 6-21 3-18 1-11v-69l-10 9-15 11-19 10-19 7-21 5-21 3-26 1-27-2-22-4-21-6-20-8-16-8-16-10-13-10-10-9-16-16-13-17-11-18-8-16-8-20-6-22-4-22-2-16v-39l4-31 5-23 6-20 6-16 12-25 10-17 12-17 13-16 12-13 13-13 8-7 16-13 19-13 19-12 24-13 26-12 29-11 32-10 38-9 35-6 35-4z" fill="#E75712"/>
<path transform="translate(1143,1)" d="m0 0h75l1 180 9-10 7-8 10-9 15-11 15-9 19-9 23-7 26-4h30l24 3 24 6 21 8 21 11 12 8 13 10 13 12 10 10 11 14 10 15 10 18 10 24 7 24 4 22 2 22v25l-3 27-5 23-8 24-12 25-11 18-11 14-9 10-5 6-8 7-13 11-15 10-16 9-17 8-21 7-23 5-16 2-24 1-25-2-23-4-21-6-24-10-19-11-16-12-14-12-8-8-9-11-10-13-11-19-10-21-9-27-5-23-3-25v-347zm198 188-19 3-16 5-16 7-11 7-14 11-10 10-11 15-9 16-6 14-5 17-3 17-1 10v25l3 22 6 21 7 16 9 16 8 10 9 10 11 10 15 10 17 8 20 6 13 2h30l17-3 21-7 19-10 14-11 14-14 10-14 11-21 6-18 4-19 1-7v-38l-3-19-6-20-8-18-10-16-12-14-8-8-15-11-14-8-15-6-21-5-9-1z" fill="#E75712"/>
<path transform="translate(1818,114)" d="m0 0h32l25 3 25 6 24 9 21 11 16 11 16 13 16 16 11 14 10 15 9 16 10 23 7 23 4 20 2 17 1 17v11l-2 25-4 23-6 21-10 25-9 17-10 15-10 13-12 13-10 10-14 11-15 10-16 9-21 9-19 6-20 4-15 2-25 1-24-2-22-4-20-6-16-6-23-12-12-8-13-10-13-12-9-9-9-11-10-14-10-17-9-19-9-27-5-24-2-16-1-18v-11l2-25 4-23 7-24 8-20 10-19 10-15 11-14 11-12 10-10 14-11 15-10 18-10 19-8 24-7 23-4zm5 75-19 3-17 5-19 9-14 10-10 9-9 9-10 14-9 16-8 21-4 18-2 14v32l3 20 6 21 8 18 8 13 10 13 14 14 14 10 19 10 18 6 17 3h31l20-4 18-6 17-9 12-9 10-9 10-11 7-10 9-16 8-21 4-18 2-14v-32l-3-20-6-21-7-16-8-14-10-13-9-10-11-9-10-7-17-9-21-7-20-3z" fill="#E75712"/>
<path transform="translate(850,114)" d="m0 0h32l25 3 24 6 20 7 17 8 18 11 13 10 14 12 10 10 9 11 12 17 9 16 9 19 9 27 5 25 2 18v39l-3 23-6 25-7 20-12 25-10 16-10 13-12 14-9 9-11 9-13 10-15 9-16 8-14 6-20 6-19 4-16 2-23 1-25-2-22-4-21-6-24-10-21-12-17-13-12-11-14-14-13-17-11-18-8-16-8-20-6-21-4-22-2-22v-24l2-22 6-29 8-24 13-27 11-17 10-13 11-12 14-14 13-10 17-11 19-10 21-8 18-5 23-4zm5 75-20 3-21 7-19 10-13 10-10 9-9 11-10 15-9 19-5 15-4 18-2 20v14l3 26 5 19 6 15 7 14 9 13 12 14 14 12 13 8 14 7 15 5 20 4h31l20-4 15-5 16-8 12-8 13-11 10-11 10-15 8-15 6-16 5-21 2-19v-22l-3-23-6-21-7-16-7-13-9-12-9-11-8-7-15-11-17-9-18-6-14-3-9-1z" fill="#E75712"/>
<path transform="translate(510,1)" d="m0 0h75l1 1v543l-1 1h-76l-1-1v-543z" fill="#E75914"/>
<path transform="translate(1533,635)" d="m0 0 15 1 16 4 16 8 9 7 8 8 1 2 4-2 7-8 12-9 13-6 16-4 15-1 17 2 13 4 15 8 13 12 9 14 5 14 2 11v148h-44l-1-142-3-10-6-9-9-6-9-3h-16l-10 3-8 6-6 7-4 9-1 5-1 140h-44l-1-141-4-12-6-8-10-6-10-3h-16l-11 4-8 6-5 8-3 10-1 141-1 1h-43v-147l3-15 5-12 7-11 8-9 13-9 13-6 13-3z" fill="#E75712"/>
<path transform="translate(593,634)" d="m0 0h30l17 4 13 5 14 8 10 8 8 7 10 13 8 14 6 15 4 18 1 11v13l-2 19-4 15-5 13-6 11-9 12-11 11-15 10-16 7-16 4-8 1h-22l-15-3-15-6-11-7-12-11-2-4h-2l1 5-1 81h-40v-182l3-15 5-15 7-14 12-16 8-8 11-8 14-8 15-5zm6 41-12 3-14 7-12 11-8 13-5 15-2 12v14l3 17 5 13 7 10 7 8 14 9 13 4 7 1h12l14-3 14-7 10-9 7-9 7-16 3-17v-16l-3-16-5-12-6-10-11-11-12-7-15-4z" fill="#E75712"/>
<path transform="translate(1108,634)" d="m0 0h30l18 4 15 6 12 7 10 8 11 11 9 13 8 17 4 13 3 18v117h-41l-1-25-6 7-14 11-15 7-15 4-6 1h-22l-17-3-17-6-15-9-13-11-10-12-8-14-6-15-4-17-2-19 1-18 3-16 5-15 9-17 7-9 9-10 10-9 15-9 15-6zm5 41-12 3-13 7-11 10-7 11-5 11-3 14-1 8v9l2 14 4 13 7 13 9 10 14 9 13 4 7 1h11l12-2 14-6 10-8 8-9 8-16 3-11 1-6v-20l-3-15-5-13-7-10-4-5-11-8-10-5-12-3z" fill="#E75712"/>
<path transform="translate(1891,634)" d="m0 0h30l18 4 13 5 13 7 10 8 13 13 9 14 6 12 5 16 3 18v117h-41l-1-25-7 8-10 8-15 8-17 5-7 1h-22l-17-3-17-6-15-9-13-11-10-12-9-16-5-13-4-17-1-7v-30l4-19 6-16 9-16 11-13 7-7 11-8 14-8 18-6zm5 41-12 3-13 7-10 9-7 10-5 11-4 15-1 16 2 16 5 15 7 12 7 8 13 9 11 4 11 2h12l14-3 14-7 10-9 6-7 7-14 4-17v-23l-4-17-7-14-9-11-13-9-14-5-5-1z" fill="#E75712"/>
<path transform="translate(778,584)" d="m0 0h44v72l12-9 14-7 17-4 16-1 17 2 16 5 13 8 10 9 7 8 8 15 4 13 2 13v140h-44l-1-136-3-12-6-10-7-6-12-5-6-1h-19l-14 4-9 6-5 5-5 8-3 8-1 6-1 133h-43l-1-1z" fill="#E75814"/>
<path transform="translate(1380,636)" d="m0 0h11l12 1 1 1v42l-11-1h-11l-13 3-10 6-6 7-4 8-3 14-1 131h-43l-1-1v-131l3-20 5-15 6-11 8-10 10-9 14-8 17-5z" fill="#E75712"/>
</svg>
