<?xml version="1.0" encoding="UTF-8"?>
<svg version="1.1" viewBox="0 0 1740 1018" width="1740" height="1018" xmlns="http://www.w3.org/2000/svg">
<path transform="translate(0)" d="m0 0h1740v1018h-1740z" fill="#E84D14"/>
<path transform="translate(0,858)" d="m0 0 12 5 17 9 12 8 14 11 13 12 9 9 9 11 10 13 12 19 10 18 9 19 9 24v2h-136z" fill="#F9D1C0"/>
<path transform="translate(1621)" d="m0 0h119v133h-9l-20-4-17-6-16-8-14-10-10-9-9-11-9-14-7-16-5-17-3-18z" fill="#F29C7D"/>
<path transform="translate(860,52)" d="m0 0h15v33h2l1-3 9-6 9-3h12l11 4 9 6 7 8 5 10 1 4v17l-3 10-6 10-7 7-10 5-7 2h-17l-12-5-10-9-6-10-3-11z" fill="#FEFBFA"/>
<path transform="translate(801,73)" d="m0 0h13l10 3 10 6 8 9 4 8 2 7v17l-4 11-6 9-8 7-8 4-6 2h-17l-13-5-10-9-6-10-3-9v-16l3-9 4-8 6-7 9-6 8-3z" fill="#FEFCFB"/>
<path transform="translate(987,73)" d="m0 0h12l10 3 10 6 7 7 6 12 1 5v19l-5 12-9 10-9 6-10 3h-16l-8-3-10-6-7-8-4-8-2-5-1-6v-11l3-11 6-10 7-7 11-6z" fill="#FEFCFB"/>
<path transform="translate(1187,520)" d="m0 0h11l11 3 10 6 8 9 4 8 2 9-1 13-4 9-6 8-7 6-8 4-9 2h-11l-9-2-11-6-7-7-5-8-2-6-1-12 2-10 4-8 9-10 14-7z" fill="#F29C7D"/>
<path transform="translate(1102,868)" d="m0 0h10l9 2 11 6 8 8 5 10 2 10-1 12-4 9-4 6-9 8-11 5-6 1h-10l-12-3-9-6-7-7-5-10-2-10 1-12 4-10 9-10 9-6z" fill="#F29C7D"/>
<path transform="translate(709,53)" d="m0 0h12v15l-16 2-16 4-15 8-7 6-7 11-2 7v14l4 10 4 5 10 5h16l7-3 4-3 3-7 2-22h14v64l-5 13-9 10-12 6-7 2h-17l-9-2-10-6-4-4 2-4 6-7 12 6 4 1h15l10-4 5-5 4-12 1-15-10 6-6 2h-17l-10-3-10-7-7-8-4-8-2-7v-19l4-13 6-9 8-9 10-7 14-7 9-3z" fill="#FEFCFB"/>
<path transform="translate(1673)" d="m0 0h67v81l-16-3-13-5-12-7-11-11-8-14-5-15-2-13z" fill="#E84D14"/>
<path transform="translate(621,869)" d="m0 0h31l10 3 6 5 3 6 1 4v7l-4 8v2l7 5 4 9v8l-3 8-8 7-9 3h-38z" fill="#F29C7D"/>
<path transform="translate(0,931)" d="m0 0 7 4 11 10 8 7 9 11 10 13 12 20 10 21v1h-67z" fill="#E84D14"/>
<path transform="translate(861,687)" d="m0 0h10l11 4 9 8 5 10 1 11-4 13-8 9 6 7 10 6 7 2 16 1v7l-4 1h-11l-12-3-9-5-9-8-2-3-7 1h-9l-11-4-8-7-4-5-3-10v-9l4-11 7-8 8-5z" fill="#F29C7D"/>
<path transform="translate(1474,520)" d="m0 0h5l9 9 7 8 17 17 7 8 4 3v-44h15v76h-5l-23-23-7-8-13-13-1 43h-15z" fill="#F29C7D"/>
<path transform="translate(1241,520)" d="m0 0h5l9 9 7 8 17 17 7 8 4 3v-44h15v76h-5l-23-23-7-8-13-13-1 43h-15z" fill="#F29C7D"/>
<path transform="translate(748,868)" d="m0 0h5l8 8 7 8 9 9 7 8 12 12v-44h15v76h-5l-14-14-7-8-8-8-7-8-6-6-1 43h-15z" fill="#F29C7D"/>
<path transform="translate(1580,520)" d="m0 0h11l9 2 8 4 9 8 2 5-10 7h-2l-5-6-7-4-4-1h-9l-9 3-5 4-4 7-1 4v12l5 10 7 5 6 2h10l8-3 7-6 1-2 5 2 7 5-2 5-7 7-14 7 1 2v8l-3 6-7 4-4 1h-8l-4-1v-10l10-1 3-3 1-6-10-1-10-4-10-9-6-9-3-12 1-13 4-10 9-10 10-6z" fill="#F29C7D"/>
<path transform="translate(163,529)" d="m0 0 4 1 18 41 4 10h-11l-3-6h-21l-3 6h-21l-12-17-9-1v18h-10v-51h23l8 3 5 5 2 10-3 8-4 4h-2l7 11 5 7 3-4 13-30 6-14z" fill="#F29C7D"/>
<path transform="translate(1654,520)" d="m0 0h6l14 32 19 43v1h-17l-3-7v-3h-32l-3 9-1 1h-16l5-13 14-31z" fill="#F29C7D"/>
<path transform="translate(1429,520)" d="m0 0h6l14 32 19 43v1h-17l-3-7v-3h-32l-3 9-1 1h-16l5-13 14-31z" fill="#F29C7D"/>
<path transform="translate(1195,688)" d="m0 0h23l13 4 9 8 4 9 1 11-4 13-6 7-12 6-5 1h-23z" fill="#F29C7D"/>
<path transform="translate(1082,688)" d="m0 0h23l13 4 9 8 4 9 1 11-4 13-6 7-12 6-5 1h-23z" fill="#F29C7D"/>
<path transform="translate(824,869)" d="m0 0h50v14h-35v15h25v13h-25v19h36v14h-51z" fill="#F29C7D"/>
<path transform="translate(688,869)" d="m0 0h50v14h-35v15h25v13h-25v19h36v14h-51z" fill="#F29C7D"/>
<path transform="translate(242,699)" d="m0 0h9l9 3 6 4 6 7 3 9v9l-3 9-8 9-8 4-5 1h-9l-10-4-8-7-4-8-1-4v-9l3-9 8-9 8-4z" fill="#F29C7D"/>
<path transform="translate(1109,520)" d="m0 0h11l9 2 8 4 9 8 2 5-10 7h-2l-5-6-7-4-4-1h-9l-9 3-5 4-4 7-1 4v12l5 10 7 5 6 2h10l8-3 7-6 1-2 5 2 7 5-2 5-7 7-10 5-9 2h-11l-13-4-8-6-8-9-4-10-1-12 2-10 5-10 8-8 14-7z" fill="#F29C7D"/>
<path transform="translate(998,868)" d="m0 0h10l13 4 6 4 8 8-1 4-8 6-4-2-5-5-8-4h-12l-10 5-6 9-1 4v12l5 10 5 4 7 3h12l10-5 5-6 5 2 6 5-1 4-5 6-10 6-11 3h-10l-12-3-9-6-7-7-5-10-2-9 1-13 4-10 9-10 10-6 5-2z" fill="#F29C7D"/>
<path transform="translate(805,87)" d="m0 0 9 1 7 3 7 6 4 8 1 4v12l-4 10-5 6-8 4-4 1h-10l-9-4-7-7-4-13v-9l3-9 7-8 8-4z" fill="#E84E15"/>
<path transform="translate(898,87)" d="m0 0 9 1 9 4 7 8 3 8v12l-3 10-6 7-8 4-4 1h-10l-9-4-8-9-3-10v-9l4-11 6-7 8-4z" fill="#E84E15"/>
<path transform="translate(990,87)" d="m0 0 10 1 8 4 7 8 3 7v14l-4 10-6 7-9 4h-12l-10-5-6-7-4-13 1-11 5-10 8-6z" fill="#E84E15"/>
<path transform="translate(1175,868)" d="m0 0h8l10 3 8 6 2 3-1 4-9 6-5-5-7-3-8 1-3 4 1 7 5 2 18 8 9 8 2 5v12l-4 7-7 6-10 3h-9l-13-4-10-9-1-4 9-7 7 6 5 3 10 1 6-3 1-1v-7l-5-4-21-10-7-8-2-5v-7l3-8 5-5 8-4z" fill="#F29C7D"/>
<path transform="translate(568,710)" d="m0 0h10l8 3 7 6 4 7 1 4v13l-4 9-4 5-6 4-6 2h-9l-9-3-7-6-4-7-1-4v-13l3-8 6-7 7-4z" fill="#E84D14"/>
<path transform="translate(1318,521)" d="m0 0h49v14h-34v18h28v14h-28v29h-15z" fill="#F29C7D"/>
<path transform="translate(884,869)" d="m0 0h49v13l-1 1h-33v19h27v14h-27v28h-15z" fill="#F29C7D"/>
<path transform="translate(1188,534)" d="m0 0h9l10 4 7 7 3 8v11l-3 8-4 5-6 4-7 2h-9l-9-3-6-5-5-10v-13l5-10 8-6z" fill="#E84D14"/>
<path transform="translate(1101,882)" d="m0 0h12l10 5 6 8 2 5v13l-5 10-8 6-5 2h-12l-10-5-5-6-3-7v-13l5-10 6-5z" fill="#E84D14"/>
<path transform="translate(1500,352)" d="m0 0 3 1 17 40 14 33v1h-6l-6-13-1-5h-40l-3 9-4 9h-6l10-24 19-45z" fill="#F29C7D"/>
<path transform="translate(739,52)" d="m0 0h15v103h-15z" fill="#FEFBFA"/>
<path transform="translate(377,530)" d="m0 0h23l8 3 5 5 2 10-3 8-4 4h-2l7 11 7 9v1h-12l-12-17-9-1v18h-10z" fill="#F29C7D"/>
<path transform="translate(751,172)" d="m0 0h13l8 5 5 6 1 3v14l-6 9-7 4h-12l-6-4-1 15h-8v-36l2-7 8-7z" fill="#FEFAF8"/>
<path transform="translate(859,696)" d="m0 0h14l9 6 4 7 1 3v11l-4 9-8 6-2 1h-14l-8-5-4-5-2-5v-14l5-8 5-4z" fill="#E84D14"/>
<path transform="translate(833,536)" d="m0 0h7l8 3 7 8 2 5v12l-4 8-7 6-7 2-10-1-8-6-4-6-1-3v-12l4-8 7-6z" fill="#E84D14"/>
<path transform="translate(1160,687)" d="m0 0 4 1 18 42 7 17h-10l-4-9h-27l-4 9h-10l10-24 15-35z" fill="#F29C7D"/>
<path transform="translate(983,687)" d="m0 0 4 1 18 42 7 17h-10l-4-9h-27l-4 9h-10l10-24 15-35z" fill="#F29C7D"/>
<path transform="translate(52,700)" d="m0 0h24l8 3 5 5 2 6-1 10-4 6-8 4h-15v19h-11z" fill="#F29C7D"/>
<path transform="translate(1e3 172)" d="m0 0h12l8 4 4 5 3 7v24h-8l-1-3-6 4h-12l-7-4-5-6-2-6v-9l3-7 4-5z" fill="#FEF9F6"/>
<path transform="translate(850,172)" d="m0 0h12l8 4 6 8 1 4v24h-8l-1-3-6 4h-12l-6-3-5-6-3-7v-8l3-8 5-5z" fill="#FEF8F6"/>
<path transform="translate(1298,373)" d="m0 0h8l9 4 6 7 2 4v12l-5 8-6 5-6 2h-8l-8-3-8-9-1-3v-12l4-7 7-6z" fill="#F29C7D"/>
<path transform="translate(496,707)" d="m0 0h24l9 4 4 6 1 8-3 8-5 5-5 1 6 9 13 17v1h-5l-10-12-9-12v-2h-15v26h-5z" fill="#F29C7D"/>
<path transform="translate(465,529)" d="m0 0 5 1 9 10 8 8 7 8 3 3 1-29h10v52l-4-1-9-9-7-8-7-7-4-5-2-1v30h-10z" fill="#F29C7D"/>
<path transform="translate(194,529)" d="m0 0 5 1 9 10 8 8 7 8 3 3 1-29h10v52l-4-1-9-9-7-8-7-7-4-5-2-1v30h-10z" fill="#F29C7D"/>
<path transform="translate(286,530)" d="m0 0h23l8 3 5 5 2 10-3 8-6 5-6 2h-13v18h-10z" fill="#F29C7D"/>
<path transform="translate(300,699)" d="m0 0 4 1 17 39 5 12v2h-11l-2-4v-3h-23l-2 7h-12l10-23 13-30z" fill="#F29C7D"/>
<path transform="translate(96,700)" d="m0 0h35v10h-24v11h18v9h-18v13h25v10h-36z" fill="#F29C7D"/>
<path transform="translate(1243,374)" d="m0 0h17l9 3 5 4 4 9v8l-4 8-7 6-7 2h-17z" fill="#F29C7D"/>
<path transform="translate(1165,374)" d="m0 0h17l9 3 5 4 4 9v8l-4 8-7 6-7 2h-17z" fill="#F29C7D"/>
<path transform="translate(904,688)" d="m0 0h9l1 41 3 6 5 3h12l6-5 2-6 1-39h9v39l-3 10-5 6-8 4-4 1h-9l-10-4-7-8-2-6z" fill="#F29C7D"/>
<path transform="translate(1253,688)" d="m0 0h38v8h-29v16h22v8h-22v19h30v8h-39z" fill="#F29C7D"/>
<path transform="translate(347,529)" d="m0 0 4 1 18 41 4 10h-11l-3-6h-21l-3 6h-11l10-23 12-28z" fill="#F29C7D"/>
<path transform="translate(852,374)" d="m0 0h9l8 4 5 7 1 3v11l-4 8-7 5-3 1h-9l-8-4-5-7-1-3v-11l4-8 7-5z" fill="#E84D14"/>
<path transform="translate(1204,696)" d="m0 0h12l10 3 5 5 3 4 1 3v12l-4 8-7 6-8 2h-12z" fill="#E84D14"/>
<path transform="translate(1091,696)" d="m0 0h12l10 3 5 5 3 4 1 3v12l-4 8-7 6-8 2h-12z" fill="#E84D14"/>
<path transform="translate(931,172)" d="m0 0h9l7 4 5-2 4-2h9l6 4 4 7v29h-9l-1-29-2-2h-7l-3 3-1 28h-8l-1-27-3-4h-7l-3 3-1 28h-8v-31l7-8z" fill="#FEFAF9"/>
<path transform="translate(682,537)" d="m0 0h13l9 3 5 4 4 8v12l-4 8-9 6-5 1h-13z" fill="#E84D14"/>
<path transform="translate(1045,869)" d="m0 0h15v75h-15z" fill="#F29C7D"/>
<path transform="translate(940,869)" d="m0 0h15v75h-15z" fill="#F29C7D"/>
<path transform="translate(1375,521)" d="m0 0h15v75h-15z" fill="#F29C7D"/>
<path transform="translate(559,530)" d="m0 0h34v9l-23 1-1 10h18v9h-18l1 12 24 1v9h-35z" fill="#F29C7D"/>
<path transform="translate(423,530)" d="m0 0h34v9l-23 1-1 10h18v9h-18l1 12 24 1v9h-35z" fill="#F29C7D"/>
<path transform="translate(343,699)" d="m0 0h7l8 3 5 5v3l-5 4-10-5-6 1-1 1v5l8 5 10 5 5 6 1 9-4 8-7 4-4 1h-7l-9-3-7-7 2-4 5-3 7 6 7 1 5-1v-7l-8-5-10-5-5-6-1-9 3-6 5-4z" fill="#F29C7D"/>
<path transform="translate(193,699)" d="m0 0h7l8 3 5 5v3l-5 4-10-5-6 1-1 1v5l8 5 10 5 5 6 1 9-4 8-7 4-4 1h-7l-9-3-7-7 2-4 5-3 7 6 7 1 5-1v-7l-8-5-10-5-5-6-1-9 3-6 5-4z" fill="#F29C7D"/>
<path transform="translate(152,699)" d="m0 0h7l8 3 5 5v3l-5 4-10-5-6 1-1 1v5l8 5 10 5 5 6 1 9-4 8-7 4-4 1h-7l-9-3-7-7 2-4 5-3 7 6 7 1 5-1v-7l-8-5-10-5-5-6-1-9 3-6 5-4z" fill="#F29C7D"/>
<path transform="translate(767,706)" d="m0 0h2l12 28 13 31v1h-5l-5-12v-2h-32l-3 9-2 5h-5l10-25 12-28z" fill="#F29C7D"/>
<path transform="translate(258,529)" d="m0 0h7l8 3 5 5-2 4-2 2-4-1-5-3h-6l-3 3 1 4 17 9 5 6 1 9-3 6-5 4-6 2h-8l-9-4-5-5v-4l4-3 4 2 4 3 9 1 4-1v-6l-8-5-10-5-5-6-1-8 3-6 5-4z" fill="#F29C7D"/>
<path transform="translate(237,373)" d="m0 0h21l7 3 4 5 1 9-3 6-4 3-3 1 2 5 13 17-4 1-9-11-8-11-13-1v23h-4z" fill="#F29C7D"/>
<path transform="translate(242,709)" d="m0 0h10l7 4 5 8v11l-4 7-5 4-3 1h-10l-7-4-4-5-1-3v-11l4-7 5-4z" fill="#E84D14"/>
<path transform="translate(1573,352)" d="m0 0h11l13 4 8 6 4 5-3 3-4-2-7-6-7-3-5-1h-8l-10 3-6 4-7 8-4 11v12l4 11 7 8 8 5 8 2h8l10-3 6-4 5-5 4 2v3l-9 8-10 4-5 1h-11l-12-4-8-6-7-8-4-10-1-5v-10l4-13 6-8 8-7 10-4z" fill="#F29C7D"/>
<path transform="translate(367,869)" d="m0 0h20l8 4 3 6-1 9-4 5-5 3 14 19 1 2-5-1-14-18-1-2-12-1v22h-4z" fill="#F29C7D"/>
<path transform="translate(238,869)" d="m0 0h20l8 4 3 6-1 9-4 5-5 3 14 19 1 2-5-1-14-18-1-2-12-1v22h-4z" fill="#F29C7D"/>
<path transform="translate(680,706)" d="m0 0 3 1 15 22 7 10v2h2l2-5 10-14 11-16h2v60h-5l-1-46-16 24-3 3-4-2-11-16-6-9-1 46h-5z" fill="#F29C7D"/>
<path transform="translate(526,369)" d="m0 0 4 1 14 15 7 8 1 1 1-24h8v43l-4-1-13-14-7-8-2-2-1 24h-8z" fill="#F29C7D"/>
<path transform="translate(791,162)" d="m0 0h8l1 13 5-3h10l6 4 4 6v30h-8l-1-25-2-5-2-1h-8l-4 4-1 27h-8z" fill="#FEFCFC"/>
<path transform="translate(512,530)" d="m0 0h43v9h-16v42h-10l-1-41-16-1z" fill="#F29C7D"/>
<path transform="translate(52,530)" d="m0 0h43v9h-16v42h-10l-1-41-16-1z" fill="#F29C7D"/>
<path transform="translate(642,369)" d="m0 0 3 1 18 41v1h-9l-2-5h-18l-2 5h-9l10-24 8-18z" fill="#F29C7D"/>
<path transform="translate(1372,710)" d="m0 0 3 1 19 45v2h-5l-4-8-24-1-3 9h-6l10-24z" fill="#F29C7D"/>
<path transform="translate(1422,353)" d="m0 0h45v5h-39v29h32v5h-32v35h-6z" fill="#F29C7D"/>
<path transform="translate(298,372)" d="m0 0 3 4 19 45v2h-4l-4-10v-2l-27 1-5 11-4-1 18-42z" fill="#F29C7D"/>
<path transform="translate(492,370)" d="m0 0h28v8h-20v9h15v7h-15v10h20l1 1v7h-29z" fill="#F29C7D"/>
<path transform="translate(1019,688)" d="m0 0h9v51h27v8h-36z" fill="#F29C7D"/>
<path transform="translate(1219,373)" d="m0 0h3l14 31 4 10h-9l-2-4h-17l-2 4h-9l10-23z" fill="#F29C7D"/>
<path transform="translate(568,706)" d="m0 0h9l10 3 8 6 5 7 3 10v9l-3 10-6 8-7 5-10 3h-8l-10-3-9-7-5-9-2-7v-9l3-10 7-9 8-5zm0 4-8 3-7 6-4 7-1 4v13l3 8 6 7 8 4 4 1h9l9-4 5-4 5-9 1-3v-13l-3-8-6-7-7-4-4-1z" fill="#F29C7D"/>
<path transform="translate(583,369)" d="m0 0h8l8 3 5 5v4l-5 3-5-5-2-1h-9l-6 4-2 4v10l4 6 4 2h9l5-3 3-3 5 4-2 5-8 5-4 1h-8l-9-4-7-8-2-8 1-9 5-8 6-5z" fill="#F29C7D"/>
<path transform="translate(449,369)" d="m0 0h8l8 3 5 5v4l-5 3-5-5-2-1h-9l-6 4-2 4v10l4 6 4 2h9l5-3 3-3 5 4-2 5-8 5-4 1h-8l-9-4-7-8-2-8 1-9 5-8 6-5z" fill="#F29C7D"/>
<path transform="translate(1500,363)" d="m0 0h2l16 39v2h-34l3-10z" fill="#E84D14"/>
<path transform="translate(886,372)" d="m0 0h17l6 3 3 3 1 9-3 5-3 3h-3l4 7 9 12-3 1-9-11-5-7-11-1v19h-3z" fill="#F29C7D"/>
<path transform="translate(1109,374)" d="m0 0h8l1 28 4 4h9l3-4 1-28h8v28l-4 8-6 4-3 1h-7l-7-3-5-5-2-6z" fill="#F29C7D"/>
<path transform="translate(441,868)" d="m0 0 2 1 15 36 4 10v2l-4-1-4-10h-25l-5 11-4-1 18-42z" fill="#F29C7D"/>
<path transform="translate(209,868)" d="m0 0 2 1 15 36 4 10v2l-4-1-4-10h-25l-5 11-4-1 18-42z" fill="#F29C7D"/>
<path transform="translate(1083,373)" d="m0 0h8l9 4 4 4-1 4-5 2-1-3-5-2h-10l-4 2-3 5v10l3 5 4 2h10l5-2 1-3 5 2 1 4-7 6-6 2h-8l-8-3-7-7-2-5v-12l4-7 7-6z" fill="#F29C7D"/>
<path transform="translate(501,711)" d="m0 0h19l6 3 3 5v9l-3 5-6 3h-19z" fill="#E84D14"/>
<path transform="translate(1644,353)" d="m0 0h6v69h36v5h-42z" fill="#F29C7D"/>
<path transform="translate(449,707)" d="m0 0h24l9 4 4 6 1 8-3 8-5 5-6 2h-19v26h-5zm5 4v25h19l7-4 2-4v-9l-4-6-5-2z" fill="#F29C7D"/>
<path transform="translate(781,371)" d="m0 0h2l17 41 1 3h-4l-3-7v-3h-24l-3 9-4 1 6-16z" fill="#F29C7D"/>
<path transform="translate(1618,711)" d="m0 0h29v5h-24v15h19v5h-19v17h25v5h-30z" fill="#F29C7D"/>
<path transform="translate(1448,711)" d="m0 0h29v5h-24v15h19v5h-19v17h25v5h-30z" fill="#F29C7D"/>
<path transform="translate(1297,381)" d="m0 0h10l5 3 3 5v10l-4 6-4 2h-10l-5-3-3-5v-10l4-6z" fill="#E84D14"/>
<path transform="translate(152,372)" d="m0 0h9l10 4 5 5v2l-3 1-7-6-3-1h-13l-8 5-5 7-1 4v10l4 9 6 5 4 2h14l8-5 2-3 1-9h-18v-4h22v14l-6 7-8 4-4 1h-9l-10-4-7-7-4-11v-8l4-11 7-7z" fill="#F29C7D"/>
<path transform="translate(1418,710)" d="m0 0h7l9 3 5 4 1 4-4 2-5-5-4-2h-10l-8 4-4 6-1 3v11l4 8 6 4 3 1h10l7-4 2-3 4 2-2 5-6 4-7 2h-7l-9-3-7-6-4-8-1-10 3-10 6-7 8-4z" fill="#F29C7D"/>
<path transform="translate(609,707)" d="m0 0h5l16 24 7-10 9-14h5l-5 9-12 18 1 5 17 25v2l-5-1-16-24h-2l-16 24-5 1 2-5 16-24-1-5-16-24z" fill="#F29C7D"/>
<path transform="translate(1667,879)" d="m0 0 2 1 16 39 1 3-4-1-3-9h-23l-3 9-4 1 10-25 7-17z" fill="#F29C7D"/>
<path transform="translate(868,533)" d="m0 0h2l9 12 10 13 11 15 1-39h4v49l-4-2-14-19-14-18-1 38h-4z" fill="#F29C7D"/>
<path transform="translate(1061,688)" d="m0 0h9v59h-9z" fill="#F29C7D"/>
<path transform="translate(1532,710)" d="m0 0 9 1 6 4 2 3-4 3-1-3-5-2h-8l-3 2v8l16 9 5 5 1 9-3 5-5 4-10 1-8-3-5-5 1-4 4 1 5 4 2 1h8l4-3v-8l-10-6-8-5-3-3-1-8 3-6z" fill="#F29C7D"/>
<path transform="translate(1496,710)" d="m0 0 9 1 6 4 2 3-4 3-1-3-5-2h-8l-3 2v8l16 9 5 5 1 9-3 5-5 4-10 1-8-3-5-5 1-4 4 1 5 4 2 1h8l4-3v-8l-10-6-8-5-3-3-1-8 3-6z" fill="#F29C7D"/>
<path transform="translate(636,912)" d="m0 0h22l5 4 1 2v7l-4 5-2 1h-22z" fill="#E84D14"/>
<path transform="translate(756,179)" d="m0 0 7 1 5 4 2 5v7l-3 6-5 3h-9l-5-5-2-4v-7l3-6 4-3z" fill="#E85119"/>
<path transform="translate(678,534)" d="m0 0h18l11 4 5 4 4 8 1 4v8l-3 9-4 5-9 5-5 1h-18zm4 3v42h13l9-3 5-4 4-8v-12l-4-8-9-6-5-1z" fill="#F29C7D"/>
<path transform="translate(832,533)" d="m0 0h8l9 3 7 6 4 8 1 4v8l-3 9-6 7-8 4-4 1h-8l-9-4-6-5-4-8-1-4v-8l3-9 6-7 8-4zm1 3-8 3-7 8-2 5v12l4 8 7 6 7 2 10-1 8-6 4-6 1-3v-12l-4-8-7-6-6-2z" fill="#F29C7D"/>
<path transform="translate(1e3 179)" d="m0 0 7 1 6 7v10l-3 5-4 3h-9l-6-5-1-4v-8l3-5 3-3z" fill="#E84E15"/>
<path transform="translate(855,179)" d="m0 0 7 1 5 5 1 2v10l-3 5-4 3h-9l-5-4-2-5v-8l3-5 4-3z" fill="#E84E15"/>
<path transform="translate(241,376)" d="m0 0h16l6 3 3 4v8l-5 5-2 1h-18z" fill="#E84D14"/>
<path transform="translate(767,715)" d="m0 0h2l13 32v1h-28l6-16z" fill="#E84D14"/>
<path transform="translate(1569,711)" d="m0 0h6l10 23 5 13 5-11 10-25h6l-3 9-16 38-3 1-19-45z" fill="#F29C7D"/>
<path transform="translate(188,373)" d="m0 0h4l1 37 3 6 5 3h12l5-3 3-6 1-37h4v35l-3 8-5 5-7 3h-8l-9-4-5-8-1-4z" fill="#F29C7D"/>
<path transform="translate(1621,353)" d="m0 0h6v74h-6z" fill="#F29C7D"/>
<path transform="translate(95,373)" d="m0 0h31v3h-27v18h21v3h-21v23h28v3h-32z" fill="#F29C7D"/>
<path transform="translate(371,872)" d="m0 0h15l6 3 2 3v8l-4 5-2 1h-17z" fill="#E84D14"/>
<path transform="translate(242,872)" d="m0 0h15l6 3 2 3v8l-4 5-2 1h-17z" fill="#E84D14"/>
<path transform="translate(1251,381)" d="m0 0h8l8 4 3 7-1 8-5 5-5 2h-8z" fill="#E84D14"/>
<path transform="translate(1173,381)" d="m0 0h8l8 4 3 7-1 8-5 5-5 2h-8z" fill="#E84D14"/>
<path transform="translate(329,869)" d="m0 0h30v3h-26v17h20v3h-20v22h27v3h-31z" fill="#F29C7D"/>
<path transform="translate(976,534)" d="m0 0h30v3h-26v18h20v3h-20v21h27v3h-31z" fill="#F29C7D"/>
<path transform="translate(66,372)" d="m0 0h7l8 4 3 3v2l-3 1-6-5h-11l-4 4v7l8 6 12 6 4 5 1 8-3 6-3 3-6 2h-7l-8-3-6-7 1-2 4 2 5 4 2 1h11l5-5v-7l-4-4-17-9-3-4-1-8 3-6z" fill="#F29C7D"/>
<path transform="translate(154,869)" d="m0 0h20l8 4 3 6-1 9-4 5-4 2h-18v22h-4zm4 3v20h17l5-4 1-2v-8l-5-5-3-1z" fill="#F29C7D"/>
<path transform="translate(777,534)" d="m0 0h20l8 4 3 6-1 9-4 5-4 2h-18v22h-4zm4 3v20h17l5-4 1-2v-8l-5-5-3-1z" fill="#F29C7D"/>
<path transform="translate(852,371)" d="m0 0h8l8 3 6 5 4 8v13l-4 8-8 6-6 2h-8l-10-5-6-8-1-3v-13l4-8 6-5zm0 3-8 4-5 7-1 3v11l4 8 7 5 3 1h9l8-4 5-7 1-3v-11l-4-8-7-5-3-1z" fill="#F29C7D"/>
<path transform="translate(298,868)" d="m0 0h8l10 4 5 6-3 2-7-6-7-2-10 1-8 6-4 8v12l4 8 6 5 7 2 10-1 6-4 4-3 2 3-7 6-9 3h-7l-9-3-7-6-4-8-1-4v-8l3-9 6-7 8-4z" fill="#F29C7D"/>
<path transform="translate(1556,879)" d="m0 0 5 5 9 11 13 17 1 1 1-33h3v43l-5-5-11-14-12-16-1 34h-3z" fill="#F29C7D"/>
<path transform="translate(902,172)" d="m0 0h8v8l-8 2-2 4-1 26h-8v-29l4-7z" fill="#FEFCFB"/>
<path transform="translate(750,533)" d="m0 0h7l8 4 2 4h-4l-4-3-8-1-5 3-1 1v7l5 5 13 7 4 5 1 2-1 9-5 5-5 2h-7l-8-4-5-5v-2l3-1 5 5 6 3 8-1 4-4v-7l-5-5-14-8-3-4-1-8 4-6z" fill="#F29C7D"/>
<path transform="translate(297,380)" d="m0 0h2l11 26v2h-23l1-6z" fill="#E84D14"/>
<path transform="translate(1655,711)" d="m0 0h5v42h22v5h-27z" fill="#F29C7D"/>
<path transform="translate(889,375)" d="m0 0h15l5 4 1 7-3 5-3 2h-15z" fill="#E84D14"/>
<path transform="translate(636,882)" d="m0 0h15l5 4 1 2v6l-5 5-3 1h-13z" fill="#E84D14"/>
<path transform="translate(611,370)" d="m0 0h8v42h-8z" fill="#F29C7D"/>
<path transform="translate(477,370)" d="m0 0h8v42h-8z" fill="#F29C7D"/>
<path transform="translate(924,372)" d="m0 0h26v3h-23v15h18v3h-18v19h24v3h-27z" fill="#F29C7D"/>
<path transform="translate(950,841)" d="m0 0h18l-1 4-11 13-3 4h-11l3-10 4-10z" fill="#F29C7D"/>
<path transform="translate(1523,880)" d="m0 0h26v3h-23v15h18v3h-18v18h24v3h-27z" fill="#F29C7D"/>
<path transform="translate(1461,880)" d="m0 0h26v3h-23v15h18v3h-18v18h24v3h-27z" fill="#F29C7D"/>
<path transform="translate(1350,880)" d="m0 0h26v3h-23v15h18v3h-18v18h24v3h-27z" fill="#F29C7D"/>
<path transform="translate(1150,374)" d="m0 0h8v40h-8z" fill="#F29C7D"/>
<path transform="translate(927,534)" d="m0 0h4l16 39v2h2l1-5 14-34 1-2 4 1-16 38-4 10h-2l-18-43z" fill="#F29C7D"/>
<path transform="translate(441,875)" d="m0 0 3 4 9 23h-23l6-16z" fill="#E84D14"/>
<path transform="translate(209,875)" d="m0 0 3 4 9 23h-23l6-16z" fill="#E84D14"/>
<path transform="translate(662,707)" d="m0 0h5v59h-5z" fill="#F29C7D"/>
<path transform="translate(966,371)" d="m0 0h7l6 3 3 3v2l-4-1-5-3h-7l-4 2-1 6 2 4 15 8 4 4 1 8-3 5-4 3-3 1h-7l-8-4-3-3 1-4 7 6 3 1h7l5-3 1-6-3-5-15-8-3-3-1-8 4-6z" fill="#F29C7D"/>
<path transform="translate(1613,879)" d="m0 0h7l8 3 5 4-1 3-10-6h-10l-6 3-4 5-2 4v12l5 8 7 4h10l8-5h3l-2 4-7 4-4 1h-7l-9-4-6-7-2-5v-12l4-8 7-6z" fill="#F29C7D"/>
<path transform="translate(1433,879)" d="m0 0h7l8 3 5 4-1 3-10-6h-10l-6 3-4 5-2 4v12l5 8 7 4h10l8-5h3l-2 4-7 4-4 1h-7l-9-4-6-7-2-5v-12l4-8 7-6z" fill="#F29C7D"/>
<path transform="translate(1656,549)" d="m0 0 3 3 8 20v2h-20l1-5z" fill="#E84D14"/>
<path transform="translate(1431,549)" d="m0 0 3 3 8 20v2h-20l1-5z" fill="#E84D14"/>
<path transform="translate(1381,880)" d="m0 0 4 1 10 15 1 1 11-17h3l-2 5-9 14 1 5 11 16v2l-4-1-11-17-8 11-5 7-3-1 13-20-2-5-10-15z" fill="#F29C7D"/>
<path transform="translate(1014,534)" d="m0 0h4v45h23v3h-27z" fill="#F29C7D"/>
<path transform="translate(781,378)" d="m0 0h2l9 23v1h-20l3-10z" fill="#E84D14"/>
<path transform="translate(723,372)" d="m0 0 4 1 14 34v2h2l1-5 13-32 4 1-17 40-1 3h-2l-18-43z" fill="#F29C7D"/>
<path transform="translate(63,709)" d="m0 0h11l5 3 1 2v7l-4 4h-13z" fill="#E84D14"/>
<path transform="translate(1161,705)" d="m0 0 3 4 7 17v3h-19l1-5z" fill="#E84D14"/>
<path transform="translate(984,705)" d="m0 0 3 4 7 17v3h-19l1-5z" fill="#E84D14"/>
<path transform="translate(1667,885)" d="m0 0 3 4 7 18v2h-19l3-10z" fill="#E84D14"/>
<path transform="translate(1559,711)" d="m0 0h5v47h-5z" fill="#F29C7D"/>
<path transform="translate(387,539)" d="m0 0h12l5 4v7l-5 4h-12z" fill="#E84D14"/>
<path transform="translate(296,539)" d="m0 0h12l5 4v7l-5 4h-12z" fill="#E84D14"/>
<path transform="translate(109,539)" d="m0 0h12l5 4v7l-5 4h-12z" fill="#E84D14"/>
<path transform="translate(1373,721)" d="m0 0 2 2 8 21h-19l3-10 5-12z" fill="#E84D14"/>
<path transform="translate(409,869)" d="m0 0h4v48h-4z" fill="#F29C7D"/>
<path transform="translate(916,534)" d="m0 0h4v48h-4z" fill="#F29C7D"/>
<path transform="translate(725,534)" d="m0 0h4v48h-4z" fill="#F29C7D"/>
<path transform="translate(808,372)" d="m0 0h3v40h21v3h-24z" fill="#F29C7D"/>
<path transform="translate(1494,880)" d="m0 0h3v39h21v3h-24z" fill="#F29C7D"/>
<path transform="translate(502,355)" d="m0 0h7l8 10v1h-6l-4-4-4 2-3 2h-6l6-8z" fill="#F29C7D"/>
<path transform="translate(301,720)" d="m0 0 3 4 4 10v3h-14l6-16z" fill="#E84D14"/>
<path transform="translate(348,549)" d="m0 0 2 1 5 13v3h-13l1-5z" fill="#E84D14"/>
<path transform="translate(164,549)" d="m0 0 2 1 5 13v3h-13l1-5z" fill="#E84D14"/>
<path transform="translate(1640,880)" d="m0 0h3v42h-3z" fill="#F29C7D"/>
<path transform="translate(1509,325)" d="m0 0h7l-2 5-10 15-5 1 9-20z" fill="#F29C7D"/>
<path transform="translate(642,386)" d="m0 0h2l4 10v4h-10l1-6z" fill="#E84D14"/>
<path transform="translate(1220,389)" d="m0 0 2 1 4 10v2h-11l3-9z" fill="#E84D14"/>
<path transform="translate(1565,694)" d="m0 0h7l-7 11-2 2h-3l3-9z" fill="#F29C7D"/>
<path transform="translate(579,686)" d="m0 0h5l-8 14-4 1 2-6z" fill="#F29C7D"/>
<path transform="translate(1534,865)" d="m0 0h4l7 9v2l-4-2-4-5-4 2-5 5-2-1z" fill="#F29C7D"/>
<path transform="translate(923,516)" d="m0 0h4l-2 5-5 8h-3l2-6z" fill="#F29C7D"/>
</svg>
