<?xml version="1.0" encoding="UTF-8"?>
<svg version="1.1" viewBox="0 0 1107 2048" width="180" height="333" xmlns="http://www.w3.org/2000/svg">
<path transform="translate(1060,4)" d="m0 0h31v206l-2 1-85 5-54 5-53 7-41 7-48 10-52 13-40 12-36 12-33 12-29 12-25 11-26 12-19 10-24 13-22 13-22 14-25 17-19 14-13 10-13 11-11 9-10 9-8 7-32 32-7 8-9 10-11 14-12 15-12 17-13 20-13 22-14 27-10 21-11 28-12 37-9 38-6 36-3 29-1 31v23l1 25 4 34 6 30 8 29 10 28 11 24 11 21 12 19 13 18 11 13 7 8 11 12 15 14 11 9 17 13 23 15 22 12 25 12 24 9 26 8 26 6 36 6 34 3h32l34-3 36-6 28-7 27-9 23-10 25-13 18-12 12-9 10-9 8-7 7-7 9-11 10-14 9-15 12-25 10-28 7-26 5-26 5-38 2-28 1-207 1-2 28-1h178v798l-7 55-7 39-8 36-9 30-10 29-12 29-14 30-14 25-12 19-13 19-9 12-11 14-12 14-11 12-25 25-8 7-13 11-16 12-18 13-19 12-24 14-34 17-29 12-28 10-42 12-38 8-40 6-35 4-33 2h-46l-34-2-48-5-39-6-37-8-32-9-36-12-24-10-26-12-28-15-24-15-18-13-14-11-13-11-8-7-12-11-20-20-5-7 3-5 12-14 13-16 11-14 8-9 8-10 13-16 11-13 10-13 11-13 9-11 11-14 4-4 4 2 14 13 14 11 10 8 20 14 21 12 12 7 26 12 26 10 21 7 36 9 26 5 30 4 24 2h15l8 1h18l5-1 32-1 27-3 30-5 26-6 26-8 28-11 23-11 20-12 17-12 10-8 10-9 8-7 5-4 9-11 7-7 12-16 10-15 11-19 14-29 10-27 9-32 7-36 4-33 1-15 1-56 1-128-11 9-8 8-11 9-13 10-17 12-21 13-26 14-28 12-20 7-26 8-29 7-41 7-35 4-33 2h-38l-38-3-40-5-36-7-28-7-29-9-26-9-28-12-27-13-23-13-23-14-11-8-17-12-14-11-14-12-8-7-12-11-26-26-7-8-12-14-11-14-13-18-16-24-9-15-10-18-9-17-15-33-13-35-8-25-11-44-8-44-5-34v-132l9-60 7-36 7-30 9-31 12-36 11-28 11-24 10-21 10-19 10-18 14-23 16-24 13-18 12-16 11-14 12-14 7-8 9-10 7-8 45-45 8-7 10-9 11-9 12-10 14-11 18-14 19-13 15-11 22-14 19-12 29-17 26-14 19-10 28-14 29-13 38-16 40-15 50-17 44-13 42-11 43-10 45-9 47-8 62-8 50-5 42-3z" fill="#E75C12"/>
</svg>
